# xmcd
#
# Track frame offsets: 
#        150
#        9336
#        23519
#        37512
#        48035
#        57611
#        70586
#        90074
#        103843
#        117030
#        126170
#
# Disc length: 1835 seconds
#
# Revision: 0
# Processed by: cddbd v1.5.2PL0 Copyright (c) Steve Scherf et al.
# Submitted via: ExactAudioCopy v0.99pb5
#
DISCID=7207290b
DTITLE=Mr. Rick and The Biscuits - Mr. Rick and The Biscuits
DYEAR=1900
DGENRE=Blues
TTITLE0=Hold Me
TTITLE1=I Feel So Good
TTITLE2=Sweet Substitute
TTITLE3=Southern Dreamer
TTITLE4=Rice and Beans
TTITLE5=Born In Chicago
TTITLE6=Sweetheart From Sigma Chi
TTITLE7=Kansas City Blues
TTITLE8=Back Door Blues
TTITLE9=How Did You Leave Heaven?
TTITLE10=Slappin On My Black Cat Bone
EXTD=
EXTT0=
EXTT1=
EXTT2=
EXTT3=
EXTT4=
EXTT5=
EXTT6=
EXTT7=
EXTT8=
EXTT9=
EXTT10=
PLAYORDER=
